{
    "asset" : {
        "generator" : "Khronos glTF Blender I/O v1.8.19",
        "version" : "2.0"
    },
    "scene" : 0,
    "scenes" : [
        {
            "name" : "Scene",
            "nodes" : [
                0,
                1
            ]
        }
    ],
    "nodes" : [
        {
            "mesh" : 0,
            "name" : "indoor plant_02"
        },
        {
            "mesh" : 1,
            "name" : "Plane",
            "rotation" : [
                0.7071067690849304,
                0,
                0,
                0.7071068286895752
            ],
            "translation" : [
                -3.6409623622894287,
                -0.29291200637817383,
                0.5149011015892029
            ]
        }
    ],
    "materials" : [
        {
            "doubleSided" : true,
            "name" : "IDP_root",
            "pbrMetallicRoughness" : {
                "baseColorFactor" : [
                    0.800000011920929,
                    0.800000011920929,
                    0.800000011920929,
                    1
                ],
                "metallicFactor" : 0,
                "roughnessFactor" : 0.5
            }
        },
        {
            "doubleSided" : true,
            "name" : "IDP_ground",
            "pbrMetallicRoughness" : {
                "baseColorFactor" : [
                    0.800000011920929,
                    0.800000011920929,
                    0.800000011920929,
                    1
                ],
                "metallicFactor" : 0,
                "roughnessFactor" : 0.5
            }
        },
        {
            "doubleSided" : true,
            "name" : "IDP_leaves",
            "pbrMetallicRoughness" : {
                "baseColorFactor" : [
                    0.800000011920929,
                    0.800000011920929,
                    0.800000011920929,
                    1
                ],
                "metallicFactor" : 0,
                "roughnessFactor" : 0.5
            }
        },
        {
            "doubleSided" : true,
            "name" : "IDP_Pot",
            "pbrMetallicRoughness" : {
                "baseColorFactor" : [
                    0.800000011920929,
                    0.800000011920929,
                    0.800000011920929,
                    1
                ],
                "metallicFactor" : 0,
                "roughnessFactor" : 0.5
            }
        },
        {
            "doubleSided" : true,
            "name" : "Material.006",
            "pbrMetallicRoughness" : {
                "baseColorFactor" : [
                    0.800000011920929,
                    0.800000011920929,
                    0.800000011920929,
                    1
                ],
                "metallicFactor" : 0,
                "roughnessFactor" : 0.5
            }
        }
    ],
    "meshes" : [
        {
            "name" : "indoor plant_02",
            "primitives" : [
                {
                    "attributes" : {
                        "POSITION" : 0,
                        "NORMAL" : 1,
                        "TEXCOORD_0" : 2
                    },
                    "indices" : 3,
                    "material" : 0
                },
                {
                    "attributes" : {
                        "POSITION" : 4,
                        "NORMAL" : 5,
                        "TEXCOORD_0" : 6
                    },
                    "indices" : 7,
                    "material" : 1
                },
                {
                    "attributes" : {
                        "POSITION" : 8,
                        "NORMAL" : 9,
                        "TEXCOORD_0" : 10
                    },
                    "indices" : 11,
                    "material" : 2
                },
                {
                    "attributes" : {
                        "POSITION" : 12,
                        "NORMAL" : 13,
                        "TEXCOORD_0" : 14
                    },
                    "indices" : 15,
                    "material" : 3
                }
            ]
        },
        {
            "name" : "Plane.001",
            "primitives" : [
                {
                    "attributes" : {
                        "POSITION" : 16,
                        "NORMAL" : 17,
                        "TEXCOORD_0" : 18
                    },
                    "indices" : 19,
                    "material" : 4
                }
            ]
        }
    ],
    "accessors" : [
        {
            "bufferView" : 0,
            "componentType" : 5126,
            "count" : 500,
            "max" : [
                0.8718245029449463,
                2.875117778778076,
                0.8718605637550354
            ],
            "min" : [
                -0.8718242049217224,
                0.03753089904785156,
                -0.8718607425689697
            ],
            "type" : "VEC3"
        },
        {
            "bufferView" : 1,
            "componentType" : 5126,
            "count" : 500,
            "type" : "VEC3"
        },
        {
            "bufferView" : 2,
            "componentType" : 5126,
            "count" : 500,
            "type" : "VEC2"
        },
        {
            "bufferView" : 3,
            "componentType" : 5123,
            "count" : 2460,
            "type" : "SCALAR"
        },
        {
            "bufferView" : 4,
            "componentType" : 5126,
            "count" : 369,
            "max" : [
                0.7325050830841064,
                1.699798345565796,
                0.732537031173706
            ],
            "min" : [
                -0.7325050830841064,
                1.612919807434082,
                -0.7325371503829956
            ],
            "type" : "VEC3"
        },
        {
            "bufferView" : 5,
            "componentType" : 5126,
            "count" : 369,
            "type" : "VEC3"
        },
        {
            "bufferView" : 6,
            "componentType" : 5126,
            "count" : 369,
            "type" : "VEC2"
        },
        {
            "bufferView" : 7,
            "componentType" : 5123,
            "count" : 2112,
            "type" : "SCALAR"
        },
        {
            "bufferView" : 8,
            "componentType" : 5126,
            "count" : 505,
            "max" : [
                3.5356030464172363,
                6.214069366455078,
                2.92230224609375
            ],
            "min" : [
                -3.2854795455932617,
                2.3675880432128906,
                -1.9332894086837769
            ],
            "type" : "VEC3"
        },
        {
            "bufferView" : 9,
            "componentType" : 5126,
            "count" : 505,
            "type" : "VEC3"
        },
        {
            "bufferView" : 10,
            "componentType" : 5126,
            "count" : 505,
            "type" : "VEC2"
        },
        {
            "bufferView" : 11,
            "componentType" : 5123,
            "count" : 2760,
            "type" : "SCALAR"
        },
        {
            "bufferView" : 12,
            "componentType" : 5126,
            "count" : 184,
            "max" : [
                0.8664275407791138,
                1.680260181427002,
                0.8664276003837585
            ],
            "min" : [
                -0.8664271831512451,
                -0.009351491928100586,
                -0.8664275407791138
            ],
            "type" : "VEC3"
        },
        {
            "bufferView" : 13,
            "componentType" : 5126,
            "count" : 184,
            "type" : "VEC3"
        },
        {
            "bufferView" : 14,
            "componentType" : 5126,
            "count" : 184,
            "type" : "VEC2"
        },
        {
            "bufferView" : 15,
            "componentType" : 5123,
            "count" : 912,
            "type" : "SCALAR"
        },
        {
            "bufferView" : 16,
            "componentType" : 5126,
            "count" : 32,
            "max" : [
                1.295029878616333,
                1.539035565656377e-06,
                0.05803871154785156
            ],
            "min" : [
                -1.0849281549453735,
                -3.365960310475202e-08,
                -9.436098098754883
            ],
            "type" : "VEC3"
        },
        {
            "bufferView" : 17,
            "componentType" : 5126,
            "count" : 32,
            "type" : "VEC3"
        },
        {
            "bufferView" : 18,
            "componentType" : 5126,
            "count" : 32,
            "type" : "VEC2"
        },
        {
            "bufferView" : 19,
            "componentType" : 5123,
            "count" : 48,
            "type" : "SCALAR"
        }
    ],
    "bufferViews" : [
        {
            "buffer" : 0,
            "byteLength" : 6000,
            "byteOffset" : 0
        },
        {
            "buffer" : 0,
            "byteLength" : 6000,
            "byteOffset" : 6000
        },
        {
            "buffer" : 0,
            "byteLength" : 4000,
            "byteOffset" : 12000
        },
        {
            "buffer" : 0,
            "byteLength" : 4920,
            "byteOffset" : 16000
        },
        {
            "buffer" : 0,
            "byteLength" : 4428,
            "byteOffset" : 20920
        },
        {
            "buffer" : 0,
            "byteLength" : 4428,
            "byteOffset" : 25348
        },
        {
            "buffer" : 0,
            "byteLength" : 2952,
            "byteOffset" : 29776
        },
        {
            "buffer" : 0,
            "byteLength" : 4224,
            "byteOffset" : 32728
        },
        {
            "buffer" : 0,
            "byteLength" : 6060,
            "byteOffset" : 36952
        },
        {
            "buffer" : 0,
            "byteLength" : 6060,
            "byteOffset" : 43012
        },
        {
            "buffer" : 0,
            "byteLength" : 4040,
            "byteOffset" : 49072
        },
        {
            "buffer" : 0,
            "byteLength" : 5520,
            "byteOffset" : 53112
        },
        {
            "buffer" : 0,
            "byteLength" : 2208,
            "byteOffset" : 58632
        },
        {
            "buffer" : 0,
            "byteLength" : 2208,
            "byteOffset" : 60840
        },
        {
            "buffer" : 0,
            "byteLength" : 1472,
            "byteOffset" : 63048
        },
        {
            "buffer" : 0,
            "byteLength" : 1824,
            "byteOffset" : 64520
        },
        {
            "buffer" : 0,
            "byteLength" : 384,
            "byteOffset" : 66344
        },
        {
            "buffer" : 0,
            "byteLength" : 384,
            "byteOffset" : 66728
        },
        {
            "buffer" : 0,
            "byteLength" : 256,
            "byteOffset" : 67112
        },
        {
            "buffer" : 0,
            "byteLength" : 96,
            "byteOffset" : 67368
        }
    ],
    "buffers" : [
        {
            "byteLength" : 67464,
            "uri" : "data:application/octet-stream;base64,"
        }
    ]
}
