{
    "asset" : {
        "generator" : "Khronos glTF Blender I/O v1.6.16",
        "version" : "2.0"
    },
    "scene" : 0,
    "scenes" : [
        {
            "name" : "Scene",
            "nodes" : [
                0,
                1,
                2
            ]
        }
    ],
    "nodes" : [
        {
            "name" : "Light",
            "rotation" : [
                0.16907575726509094,
                0.7558803558349609,
                -0.27217137813568115,
                0.570947527885437
            ],
            "translation" : [
                4.076245307922363,
                5.903861999511719,
                -1.0054539442062378
            ]
        },
        {
            "name" : "Camera",
            "rotation" : [
                0.483536034822464,
                0.33687159419059753,
                -0.20870360732078552,
                0.7804827094078064
            ],
            "translation" : [
                7.358891487121582,
                4.958309173583984,
                6.925790786743164
            ]
        },
        {
            "mesh" : 0,
            "name" : "Text",
            "rotation" : [
                -0.5447821021080017,
                -0.5175817608833313,
                0.3928658962249756,
                -0.5300737619400024
            ],
            "translation" : [
                3.7248692512512207,
                2.5481672286987305,
                3.5368778705596924
            ]
        }
    ],
    "materials" : [
        {
            "doubleSided" : true,
            "name" : "Material.001",
            "pbrMetallicRoughness" : {
                "baseColorFactor" : [
                    0.800000011920929,
                    0.800000011920929,
                    0.800000011920929,
                    1
                ],
                "metallicFactor" : 0.9318181872367859,
                "roughnessFactor" : 0.09090909361839294
            }
        }
    ],
    "meshes" : [
        {
            "name" : "Text",
            "primitives" : [
                {
                    "attributes" : {
                        "POSITION" : 0,
                        "NORMAL" : 1,
                        "TEXCOORD_0" : 2
                    },
                    "indices" : 3,
                    "material" : 0
                }
            ]
        }
    ],
    "accessors" : [
        {
            "bufferView" : 0,
            "componentType" : 5126,
            "count" : 66163,
            "max" : [
                1.0296554565429688,
                0.03999999910593033,
                0.09690601378679276
            ],
            "min" : [
                -0.6706362962722778,
                -0.03999999910593033,
                -0.4203152358531952
            ],
            "type" : "VEC3"
        },
        {
            "bufferView" : 1,
            "componentType" : 5126,
            "count" : 66163,
            "type" : "VEC3"
        },
        {
            "bufferView" : 2,
            "componentType" : 5126,
            "count" : 66163,
            "type" : "VEC2"
        },
        {
            "bufferView" : 3,
            "componentType" : 5125,
            "count" : 119472,
            "type" : "SCALAR"
        }
    ],
    "bufferViews" : [
        {
            "buffer" : 0,
            "byteLength" : 793956,
            "byteOffset" : 0
        },
        {
            "buffer" : 0,
            "byteLength" : 793956,
            "byteOffset" : 793956
        },
        {
            "buffer" : 0,
            "byteLength" : 529304,
            "byteOffset" : 1587912
        },
        {
            "buffer" : 0,
            "byteLength" : 477888,
            "byteOffset" : 2117216
        }
    ],
    "buffers" : [
        {
            "byteLength" : 2595104,
            "uri" : "data:application/octet-stream;base64,"
        }
    ]
}
