{
    "asset" : {
        "generator" : "Khronos glTF Blender I/O v1.8.19",
        "version" : "2.0"
    },
    "scene" : 0,
    "scenes" : [
        {
            "name" : "Scene",
            "nodes" : [
                0,
                1,
                2,
                3,
                4,
                5,
                6,
                7
            ]
        }
    ],
    "nodes" : [
        {
            "mesh" : 0,
            "name" : "Cube.005",
            "rotation" : [
                0.7071068286895752,
                0,
                0,
                0.7071067094802856
            ]
        },
        {
            "mesh" : 1,
            "name" : "Cylinder.001",
            "rotation" : [
                0.7071068286895752,
                0,
                0,
                0.7071067094802856
            ]
        },
        {
            "mesh" : 2,
            "name" : "Torus",
            "rotation" : [
                0.7071068286895752,
                0,
                0,
                0.7071067094802856
            ]
        },
        {
            "mesh" : 3,
            "name" : "Cube.004",
            "rotation" : [
                0.7071068286895752,
                0,
                0,
                0.7071067094802856
            ]
        },
        {
            "mesh" : 4,
            "name" : "Sphere",
            "rotation" : [
                0.7071068286895752,
                0,
                0,
                0.7071067094802856
            ]
        },
        {
            "mesh" : 5,
            "name" : "Cube.001",
            "rotation" : [
                0.7071068286895752,
                0,
                0,
                0.7071067094802856
            ]
        },
        {
            "mesh" : 6,
            "name" : "Cube.002",
            "rotation" : [
                0.7071068286895752,
                0,
                0,
                0.7071067094802856
            ]
        },
        {
            "mesh" : 7,
            "name" : "Sphere.001",
            "rotation" : [
                0.7071068286895752,
                0,
                0,
                0.7071067094802856
            ]
        }
    ],
    "materials" : [
        {
            "doubleSided" : true,
            "name" : "Material.007",
            "pbrMetallicRoughness" : {
                "baseColorFactor" : [
                    0,
                    0,
                    0,
                    1
                ],
                "metallicFactor" : 0,
                "roughnessFactor" : 0.5
            }
        },
        {
            "doubleSided" : true,
            "name" : "Material.010",
            "pbrMetallicRoughness" : {
                "baseColorFactor" : [
                    0.17983600497245789,
                    0.11781100183725357,
                    0.10389800369739532,
                    1
                ],
                "metallicFactor" : 0,
                "roughnessFactor" : 0.5
            }
        },
        {
            "doubleSided" : true,
            "name" : "Material.006",
            "pbrMetallicRoughness" : {
                "baseColorFactor" : [
                    0.800000011920929,
                    0.800000011920929,
                    0.7883099913597107,
                    1
                ],
                "metallicFactor" : 0,
                "roughnessFactor" : 0.5
            }
        },
        {
            "doubleSided" : true,
            "name" : "Material.004",
            "pbrMetallicRoughness" : {
                "baseColorFactor" : [
                    0.2874409854412079,
                    0.015995999798178673,
                    0.014444000087678432,
                    1
                ],
                "metallicFactor" : 0,
                "roughnessFactor" : 0.5
            }
        },
        {
            "doubleSided" : true,
            "name" : "Material.008",
            "pbrMetallicRoughness" : {
                "baseColorFactor" : [
                    0.7454040050506592,
                    0.3915730118751526,
                    0.038203999400138855,
                    1
                ],
                "metallicFactor" : 0,
                "roughnessFactor" : 0.5
            }
        },
        {
            "doubleSided" : true,
            "name" : "Material.005",
            "pbrMetallicRoughness" : {
                "baseColorFactor" : [
                    0.03012000024318695,
                    0.041078999638557434,
                    0.28374698758125305,
                    1
                ],
                "metallicFactor" : 0,
                "roughnessFactor" : 0.5
            }
        },
        {
            "doubleSided" : true,
            "name" : "Material.012",
            "pbrMetallicRoughness" : {
                "baseColorFactor" : [
                    0.8227859735488892,
                    0.4969330132007599,
                    0.27049800753593445,
                    1
                ],
                "metallicFactor" : 0,
                "roughnessFactor" : 0.5
            }
        },
        {
            "doubleSided" : true,
            "name" : "Material.009",
            "pbrMetallicRoughness" : {
                "baseColorFactor" : [
                    0.3864299952983856,
                    0.201555997133255,
                    0.09530699998140335,
                    1
                ],
                "metallicFactor" : 0,
                "roughnessFactor" : 0.5
            }
        },
        {
            "doubleSided" : true,
            "name" : "Material.011",
            "pbrMetallicRoughness" : {
                "baseColorFactor" : [
                    1,
                    1,
                    1,
                    1
                ],
                "metallicFactor" : 0,
                "roughnessFactor" : 0.5
            }
        }
    ],
    "meshes" : [
        {
            "name" : "Cube.005",
            "primitives" : [
                {
                    "attributes" : {
                        "POSITION" : 0,
                        "NORMAL" : 1
                    },
                    "indices" : 2,
                    "material" : 0
                }
            ]
        },
        {
            "name" : "Cylinder.001",
            "primitives" : [
                {
                    "attributes" : {
                        "POSITION" : 3,
                        "NORMAL" : 4
                    },
                    "indices" : 5,
                    "material" : 1
                }
            ]
        },
        {
            "name" : "Torus",
            "primitives" : [
                {
                    "attributes" : {
                        "POSITION" : 6,
                        "NORMAL" : 7
                    },
                    "indices" : 8,
                    "material" : 2
                }
            ]
        },
        {
            "name" : "Cube.004",
            "primitives" : [
                {
                    "attributes" : {
                        "POSITION" : 9,
                        "NORMAL" : 10
                    },
                    "indices" : 11,
                    "material" : 3
                }
            ]
        },
        {
            "name" : "Sphere",
            "primitives" : [
                {
                    "attributes" : {
                        "POSITION" : 12,
                        "NORMAL" : 13
                    },
                    "indices" : 14,
                    "material" : 4
                },
                {
                    "attributes" : {
                        "POSITION" : 15,
                        "NORMAL" : 16
                    },
                    "indices" : 17,
                    "material" : 3
                }
            ]
        },
        {
            "name" : "Cube.001",
            "primitives" : [
                {
                    "attributes" : {
                        "POSITION" : 18,
                        "NORMAL" : 19
                    },
                    "indices" : 20,
                    "material" : 5
                }
            ]
        },
        {
            "name" : "Cube.002",
            "primitives" : [
                {
                    "attributes" : {
                        "POSITION" : 21,
                        "NORMAL" : 22
                    },
                    "indices" : 23,
                    "material" : 6
                },
                {
                    "attributes" : {
                        "POSITION" : 24,
                        "NORMAL" : 25
                    },
                    "indices" : 26,
                    "material" : 7
                }
            ]
        },
        {
            "name" : "Sphere.001",
            "primitives" : [
                {
                    "attributes" : {
                        "POSITION" : 27,
                        "NORMAL" : 28
                    },
                    "indices" : 29,
                    "material" : 0
                },
                {
                    "attributes" : {
                        "POSITION" : 30,
                        "NORMAL" : 31
                    },
                    "indices" : 32,
                    "material" : 8
                }
            ]
        }
    ],
    "accessors" : [
        {
            "bufferView" : 0,
            "componentType" : 5126,
            "count" : 724,
            "max" : [
                0.8588830232620239,
                -2.6294360160827637,
                -1.9085479974746704
            ],
            "min" : [
                -0.09191100299358368,
                -3.5788400173187256,
                -2.77543306350708
            ],
            "type" : "VEC3"
        },
        {
            "bufferView" : 1,
            "componentType" : 5126,
            "count" : 724,
            "type" : "VEC3"
        },
        {
            "bufferView" : 2,
            "componentType" : 5123,
            "count" : 4023,
            "type" : "SCALAR"
        },
        {
            "bufferView" : 3,
            "componentType" : 5126,
            "count" : 960,
            "max" : [
                1.8083699941635132,
                -2.397407054901123,
                3.2470879554748535
            ],
            "min" : [
                -0.8012080192565918,
                -3.4865059852600098,
                2.8453049659729004
            ],
            "type" : "VEC3"
        },
        {
            "bufferView" : 4,
            "componentType" : 5126,
            "count" : 960,
            "type" : "VEC3"
        },
        {
            "bufferView" : 5,
            "componentType" : 5123,
            "count" : 1608,
            "type" : "SCALAR"
        },
        {
            "bufferView" : 6,
            "componentType" : 5126,
            "count" : 1152,
            "max" : [
                1.36045503616333,
                -2.7474539279937744,
                1.5873119831085205
            ],
            "min" : [
                -0.4249660074710846,
                -3.6029999256134033,
                1.1014909744262695
            ],
            "type" : "VEC3"
        },
        {
            "bufferView" : 7,
            "componentType" : 5126,
            "count" : 1152,
            "type" : "VEC3"
        },
        {
            "bufferView" : 8,
            "componentType" : 5123,
            "count" : 6912,
            "type" : "SCALAR"
        },
        {
            "bufferView" : 9,
            "componentType" : 5126,
            "count" : 1838,
            "max" : [
                1.0574510097503662,
                -2.7250759601593018,
                0.20910100638866425
            ],
            "min" : [
                -0.13936099410057068,
                -3.6533169746398926,
                -1.7683930397033691
            ],
            "type" : "VEC3"
        },
        {
            "bufferView" : 10,
            "componentType" : 5126,
            "count" : 1838,
            "type" : "VEC3"
        },
        {
            "bufferView" : 11,
            "componentType" : 5123,
            "count" : 10536,
            "type" : "SCALAR"
        },
        {
            "bufferView" : 12,
            "componentType" : 5126,
            "count" : 609,
            "max" : [
                1.1558339595794678,
                -2.5779619216918945,
                -2.023844003677368
            ],
            "min" : [
                -0.2914060056209564,
                -3.811729907989502,
                -2.8437609672546387
            ],
            "type" : "VEC3"
        },
        {
            "bufferView" : 13,
            "componentType" : 5126,
            "count" : 609,
            "type" : "VEC3"
        },
        {
            "bufferView" : 14,
            "componentType" : 5123,
            "count" : 3552,
            "type" : "SCALAR"
        },
        {
            "bufferView" : 15,
            "componentType" : 5126,
            "count" : 96,
            "max" : [
                0.8699259757995605,
                -2.8224430084228516,
                -2.1816210746765137
            ],
            "min" : [
                -0.015077999792993069,
                -3.610368013381958,
                -2.7365739345550537
            ],
            "type" : "VEC3"
        },
        {
            "bufferView" : 16,
            "componentType" : 5126,
            "count" : 96,
            "type" : "VEC3"
        },
        {
            "bufferView" : 17,
            "componentType" : 5123,
            "count" : 384,
            "type" : "SCALAR"
        },
        {
            "bufferView" : 18,
            "componentType" : 5126,
            "count" : 631,
            "max" : [
                1.2929790019989014,
                -2.8505239486694336,
                1.3470849990844727
            ],
            "min" : [
                -0.36035099625587463,
                -3.5246028900146484,
                -0.253574013710022
            ],
            "type" : "VEC3"
        },
        {
            "bufferView" : 19,
            "componentType" : 5126,
            "count" : 631,
            "type" : "VEC3"
        },
        {
            "bufferView" : 20,
            "componentType" : 5123,
            "count" : 3456,
            "type" : "SCALAR"
        },
        {
            "bufferView" : 21,
            "componentType" : 5126,
            "count" : 11613,
            "max" : [
                1.94765305519104,
                -2.39247989654541,
                3.22188401222229
            ],
            "min" : [
                -0.9903500080108643,
                -3.6154420375823975,
                -2.73281192779541
            ],
            "type" : "VEC3"
        },
        {
            "bufferView" : 22,
            "componentType" : 5126,
            "count" : 11613,
            "type" : "VEC3"
        },
        {
            "bufferView" : 23,
            "componentType" : 5123,
            "count" : 69354,
            "type" : "SCALAR"
        },
        {
            "bufferView" : 24,
            "componentType" : 5126,
            "count" : 132,
            "max" : [
                0.7849479913711548,
                -3.1880691051483154,
                -1.9817609786987305
            ],
            "min" : [
                0.09602600336074829,
                -3.295959949493408,
                -2.12764310836792
            ],
            "type" : "VEC3"
        },
        {
            "bufferView" : 25,
            "componentType" : 5126,
            "count" : 132,
            "type" : "VEC3"
        },
        {
            "bufferView" : 26,
            "componentType" : 5123,
            "count" : 678,
            "type" : "SCALAR"
        },
        {
            "bufferView" : 27,
            "componentType" : 5126,
            "count" : 66,
            "max" : [
                0.6405050158500671,
                -2.7890520095825195,
                -2.1916680335998535
            ],
            "min" : [
                0.2237749993801117,
                -2.813584089279175,
                -2.2659549713134766
            ],
            "type" : "VEC3"
        },
        {
            "bufferView" : 28,
            "componentType" : 5126,
            "count" : 66,
            "type" : "VEC3"
        },
        {
            "bufferView" : 29,
            "componentType" : 5123,
            "count" : 192,
            "type" : "SCALAR"
        },
        {
            "bufferView" : 30,
            "componentType" : 5126,
            "count" : 962,
            "max" : [
                0.7236480116844177,
                -2.787147045135498,
                -2.072204113006592
            ],
            "min" : [
                0.1410209983587265,
                -3.1291580200195312,
                -2.4174129962921143
            ],
            "type" : "VEC3"
        },
        {
            "bufferView" : 31,
            "componentType" : 5126,
            "count" : 962,
            "type" : "VEC3"
        },
        {
            "bufferView" : 32,
            "componentType" : 5123,
            "count" : 5568,
            "type" : "SCALAR"
        }
    ],
    "bufferViews" : [
        {
            "buffer" : 0,
            "byteLength" : 8688,
            "byteOffset" : 0
        },
        {
            "buffer" : 0,
            "byteLength" : 8688,
            "byteOffset" : 8688
        },
        {
            "buffer" : 0,
            "byteLength" : 8046,
            "byteOffset" : 17376
        },
        {
            "buffer" : 0,
            "byteLength" : 11520,
            "byteOffset" : 25424
        },
        {
            "buffer" : 0,
            "byteLength" : 11520,
            "byteOffset" : 36944
        },
        {
            "buffer" : 0,
            "byteLength" : 3216,
            "byteOffset" : 48464
        },
        {
            "buffer" : 0,
            "byteLength" : 13824,
            "byteOffset" : 51680
        },
        {
            "buffer" : 0,
            "byteLength" : 13824,
            "byteOffset" : 65504
        },
        {
            "buffer" : 0,
            "byteLength" : 13824,
            "byteOffset" : 79328
        },
        {
            "buffer" : 0,
            "byteLength" : 22056,
            "byteOffset" : 93152
        },
        {
            "buffer" : 0,
            "byteLength" : 22056,
            "byteOffset" : 115208
        },
        {
            "buffer" : 0,
            "byteLength" : 21072,
            "byteOffset" : 137264
        },
        {
            "buffer" : 0,
            "byteLength" : 7308,
            "byteOffset" : 158336
        },
        {
            "buffer" : 0,
            "byteLength" : 7308,
            "byteOffset" : 165644
        },
        {
            "buffer" : 0,
            "byteLength" : 7104,
            "byteOffset" : 172952
        },
        {
            "buffer" : 0,
            "byteLength" : 1152,
            "byteOffset" : 180056
        },
        {
            "buffer" : 0,
            "byteLength" : 1152,
            "byteOffset" : 181208
        },
        {
            "buffer" : 0,
            "byteLength" : 768,
            "byteOffset" : 182360
        },
        {
            "buffer" : 0,
            "byteLength" : 7572,
            "byteOffset" : 183128
        },
        {
            "buffer" : 0,
            "byteLength" : 7572,
            "byteOffset" : 190700
        },
        {
            "buffer" : 0,
            "byteLength" : 6912,
            "byteOffset" : 198272
        },
        {
            "buffer" : 0,
            "byteLength" : 139356,
            "byteOffset" : 205184
        },
        {
            "buffer" : 0,
            "byteLength" : 139356,
            "byteOffset" : 344540
        },
        {
            "buffer" : 0,
            "byteLength" : 138708,
            "byteOffset" : 483896
        },
        {
            "buffer" : 0,
            "byteLength" : 1584,
            "byteOffset" : 622604
        },
        {
            "buffer" : 0,
            "byteLength" : 1584,
            "byteOffset" : 624188
        },
        {
            "buffer" : 0,
            "byteLength" : 1356,
            "byteOffset" : 625772
        },
        {
            "buffer" : 0,
            "byteLength" : 792,
            "byteOffset" : 627128
        },
        {
            "buffer" : 0,
            "byteLength" : 792,
            "byteOffset" : 627920
        },
        {
            "buffer" : 0,
            "byteLength" : 384,
            "byteOffset" : 628712
        },
        {
            "buffer" : 0,
            "byteLength" : 11544,
            "byteOffset" : 629096
        },
        {
            "buffer" : 0,
            "byteLength" : 11544,
            "byteOffset" : 640640
        },
        {
            "buffer" : 0,
            "byteLength" : 11136,
            "byteOffset" : 652184
        }
    ],
    "buffers" : [
        {
            "byteLength" : 663320,
            "uri" : "data:application/octet-stream;base64,"
        }
    ]
}
